<mxfile host="app.diagrams.net" modified="2024-05-16T13:16:26.442Z" agent="Mozilla/5.0 (Windows NT 10.0; Win64; x64) AppleWebKit/537.36 (KHTML, like Gecko) Chrome/124.0.0.0 Safari/537.36" etag="jZsckyliKDMaQ06kYfkg" version="24.4.2" type="device">
  <diagram name="PÃ¡gina-1" id="OiHRwYwMHBK58RIdK7k8">
    <mxGraphModel dx="794" dy="420" grid="1" gridSize="10" guides="1" tooltips="1" connect="1" arrows="1" fold="1" page="1" pageScale="1" pageWidth="827" pageHeight="1169" math="0" shadow="0">
      <root>
        <mxCell id="0" />
        <mxCell id="1" parent="0" />
        <mxCell id="wxnqJXgmLUIvw7YWhs6d-1" value="" style="whiteSpace=wrap;html=1;aspect=fixed;" vertex="1" parent="1">
          <mxGeometry x="40" y="30" width="140" height="140" as="geometry" />
        </mxCell>
        <mxCell id="wxnqJXgmLUIvw7YWhs6d-8" value="medico" style="text;html=1;align=center;verticalAlign=middle;whiteSpace=wrap;rounded=0;" vertex="1" parent="1">
          <mxGeometry x="80" y="40" width="60" height="30" as="geometry" />
        </mxCell>
        <mxCell id="wxnqJXgmLUIvw7YWhs6d-10" value="" style="endArrow=none;html=1;rounded=0;" edge="1" parent="1" target="wxnqJXgmLUIvw7YWhs6d-1">
          <mxGeometry width="50" height="50" relative="1" as="geometry">
            <mxPoint x="40" y="100" as="sourcePoint" />
            <mxPoint x="90" y="50" as="targetPoint" />
          </mxGeometry>
        </mxCell>
        <mxCell id="wxnqJXgmLUIvw7YWhs6d-12" value="" style="endArrow=none;html=1;rounded=0;entryX=1.043;entryY=0.324;entryDx=0;entryDy=0;entryPerimeter=0;" edge="1" parent="1" target="wxnqJXgmLUIvw7YWhs6d-1">
          <mxGeometry width="50" height="50" relative="1" as="geometry">
            <mxPoint x="40" y="70" as="sourcePoint" />
            <mxPoint x="110" y="70" as="targetPoint" />
            <Array as="points">
              <mxPoint x="180" y="70" />
            </Array>
          </mxGeometry>
        </mxCell>
        <mxCell id="wxnqJXgmLUIvw7YWhs6d-14" value="#nome" style="text;html=1;align=center;verticalAlign=middle;whiteSpace=wrap;rounded=0;" vertex="1" parent="1">
          <mxGeometry x="40" y="70" width="60" height="30" as="geometry" />
        </mxCell>
        <mxCell id="wxnqJXgmLUIvw7YWhs6d-15" value="#especialide" style="text;html=1;align=center;verticalAlign=middle;whiteSpace=wrap;rounded=0;" vertex="1" parent="1">
          <mxGeometry x="50" y="90" width="60" height="30" as="geometry" />
        </mxCell>
        <mxCell id="wxnqJXgmLUIvw7YWhs6d-17" value="" style="whiteSpace=wrap;html=1;aspect=fixed;" vertex="1" parent="1">
          <mxGeometry x="330" y="30" width="140" height="140" as="geometry" />
        </mxCell>
        <mxCell id="wxnqJXgmLUIvw7YWhs6d-18" value="paciente" style="text;html=1;align=center;verticalAlign=middle;whiteSpace=wrap;rounded=0;" vertex="1" parent="1">
          <mxGeometry x="370" y="40" width="60" height="30" as="geometry" />
        </mxCell>
        <mxCell id="wxnqJXgmLUIvw7YWhs6d-19" value="" style="endArrow=none;html=1;rounded=0;entryX=1.019;entryY=0.3;entryDx=0;entryDy=0;entryPerimeter=0;" edge="1" parent="1" target="wxnqJXgmLUIvw7YWhs6d-17">
          <mxGeometry width="50" height="50" relative="1" as="geometry">
            <mxPoint x="330" y="70" as="sourcePoint" />
            <mxPoint x="410" y="70" as="targetPoint" />
          </mxGeometry>
        </mxCell>
        <mxCell id="wxnqJXgmLUIvw7YWhs6d-20" value="#nome&lt;div&gt;&lt;br&gt;&lt;/div&gt;" style="text;html=1;align=center;verticalAlign=middle;whiteSpace=wrap;rounded=0;" vertex="1" parent="1">
          <mxGeometry x="330" y="85" width="60" height="30" as="geometry" />
        </mxCell>
        <mxCell id="wxnqJXgmLUIvw7YWhs6d-21" value="#prontuario" style="text;html=1;align=center;verticalAlign=middle;whiteSpace=wrap;rounded=0;" vertex="1" parent="1">
          <mxGeometry x="340" y="100" width="60" height="30" as="geometry" />
        </mxCell>
        <mxCell id="wxnqJXgmLUIvw7YWhs6d-22" value="" style="endArrow=classic;startArrow=classic;html=1;rounded=0;entryX=0;entryY=0.75;entryDx=0;entryDy=0;" edge="1" parent="1" target="wxnqJXgmLUIvw7YWhs6d-20">
          <mxGeometry width="50" height="50" relative="1" as="geometry">
            <mxPoint x="180" y="104.5" as="sourcePoint" />
            <mxPoint x="250" y="104.5" as="targetPoint" />
          </mxGeometry>
        </mxCell>
      </root>
    </mxGraphModel>
  </diagram>
</mxfile>
